<svg id="Layer_1" data-name="Layer 1" xmlns="http://www.w3.org/2000/svg" xmlns:xlink="http://www.w3.org/1999/xlink" viewBox="0 0 236.6 74.7"><defs><style>.cls-1{fill:url(#linear-gradient);}.cls-2{fill:url(#linear-gradient-2);}.cls-3{fill:url(#linear-gradient-3);}.cls-4{fill:url(#linear-gradient-4);}.cls-5{fill:url(#linear-gradient-5);}.cls-6{fill:url(#linear-gradient-6);}.cls-7{fill:url(#linear-gradient-7);}.cls-8{fill:url(#linear-gradient-8);}.cls-9{fill:url(#linear-gradient-9);}.cls-10{fill:url(#linear-gradient-10);}.cls-11{fill:url(#linear-gradient-11);}.cls-12{fill:url(#linear-gradient-12);}.cls-13{fill:url(#linear-gradient-13);}.cls-14{fill:url(#linear-gradient-14);}.cls-15{fill:url(#linear-gradient-15);}.cls-16,.cls-17{fill:none;stroke-width:0.55px;}.cls-16{stroke:url(#linear-gradient-16);}.cls-17{stroke:url(#linear-gradient-17);}.cls-18{fill:url(#linear-gradient-18);}.cls-19{fill:url(#linear-gradient-19);}.cls-20{fill:url(#linear-gradient-20);}.cls-21{fill:url(#linear-gradient-21);}.cls-22{fill:url(#linear-gradient-22);}.cls-23{fill:url(#linear-gradient-23);}</style><linearGradient id="linear-gradient" x1="69.47" y1="-2680.03" x2="112.71" y2="-2680.03" gradientTransform="matrix(1, 0, 0, -1, 0, -2655.5)" gradientUnits="userSpaceOnUse"><stop offset="0" stop-color="#868cff"/><stop offset="1" stop-color="#4318ff"/></linearGradient><linearGradient id="linear-gradient-2" x1="119.21" y1="-2691.82" x2="119.21" y2="-2669.22" gradientTransform="matrix(1, 0, 0, -1, 0, -2655.5)" gradientUnits="userSpaceOnUse"><stop offset="0" stop-color="#868cff"/><stop offset="0.15" stop-color="#8286ff"/><stop offset="0.36" stop-color="#7874ff"/><stop offset="0.6" stop-color="#6857ff"/><stop offset="0.86" stop-color="#512fff"/><stop offset="1" stop-color="#4318ff"/></linearGradient><linearGradient id="linear-gradient-3" x1="136.02" y1="-2680.56" x2="141.97" y2="-2680.52" xlink:href="#linear-gradient"/><linearGradient id="linear-gradient-4" x1="147.36" y1="-2692.54" x2="160.95" y2="-2669" xlink:href="#linear-gradient"/><linearGradient id="linear-gradient-5" x1="167.16" y1="-2680.54" x2="184.38" y2="-2680.54" xlink:href="#linear-gradient"/><linearGradient id="linear-gradient-6" x1="206.35" y1="-2690.35" x2="186.86" y2="-2670.86" gradientTransform="matrix(1, 0, 0, -1, 0, -2655.5)" gradientUnits="userSpaceOnUse"><stop offset="0" stop-color="#868cff"/><stop offset="0.16" stop-color="#8387ff"/><stop offset="0.36" stop-color="#7a78ff"/><stop offset="0.57" stop-color="#6c5fff"/><stop offset="0.8" stop-color="#583cff"/><stop offset="1" stop-color="#4318ff"/></linearGradient><linearGradient id="linear-gradient-7" x1="210.65" y1="-2682.47" x2="229.09" y2="-2678.51" xlink:href="#linear-gradient"/><linearGradient id="linear-gradient-8" x1="66.1" y1="-5473.28" x2="66.68" y2="-5473.29" gradientTransform="matrix(1, 0, 0, -1, 0, -5461.5)" gradientUnits="userSpaceOnUse"><stop offset="0" stop-color="#26a4ff"/><stop offset="1" stop-color="#0d9aff"/></linearGradient><linearGradient id="linear-gradient-9" x1="17.43" y1="-5480.41" x2="18.94" y2="-5480.44" xlink:href="#linear-gradient-8"/><linearGradient id="linear-gradient-10" x1="9.61" y1="-5503.48" x2="11.12" y2="-5503.51" xlink:href="#linear-gradient-8"/><linearGradient id="linear-gradient-11" x1="54.53" y1="-5509.84" x2="56.04" y2="-5509.87" xlink:href="#linear-gradient-8"/><linearGradient id="linear-gradient-12" x1="19.44" y1="-5497.01" x2="20.02" y2="-5497.02" xlink:href="#linear-gradient-8"/><linearGradient id="linear-gradient-13" x1="30.49" y1="-5472.37" x2="31.4" y2="-5472.39" xlink:href="#linear-gradient-8"/><linearGradient id="linear-gradient-14" x1="15.36" y1="-5491.27" x2="10.81" y2="-5492.02" xlink:href="#linear-gradient-8"/><linearGradient id="linear-gradient-15" x1="12.55" y1="-5470.99" x2="59.14" y2="-5515.79" gradientTransform="matrix(1, 0, 0, -1, 0, -5461.5)" xlink:href="#linear-gradient"/><linearGradient id="linear-gradient-16" x1="34.19" y1="-5507.41" x2="32.28" y2="-5502.05" gradientTransform="matrix(1, 0, 0, -1, 0, -5461.5)" gradientUnits="userSpaceOnUse"><stop offset="0" stop-color="#3f5fff"/><stop offset="1" stop-color="#3f5fff" stop-opacity="0"/></linearGradient><linearGradient id="linear-gradient-17" x1="34.19" y1="-5507.41" x2="32.28" y2="-5502.05" gradientTransform="matrix(1, 0, 0, -1, 0, -5461.5)" gradientUnits="userSpaceOnUse"><stop offset="0" stop-color="#1da0ff"/><stop offset="1" stop-color="#199fff" stop-opacity="0.13"/></linearGradient><linearGradient id="linear-gradient-18" x1="55.57" y1="-5480.78" x2="49.25" y2="-5480.04" xlink:href="#linear-gradient-8"/><linearGradient id="linear-gradient-19" x1="122.02" y1="30.55" x2="113.29" y2="45.66" gradientTransform="matrix(1, 0, 0, -1, 0, 90.5)" xlink:href="#linear-gradient"/><linearGradient id="linear-gradient-20" x1="139.79" y1="26.07" x2="128.68" y2="45.31" gradientTransform="matrix(1, 0, 0, -1, 0, 90.5)" xlink:href="#linear-gradient"/><linearGradient id="linear-gradient-21" x1="157.99" y1="28.03" x2="149.72" y2="42.36" gradientTransform="matrix(1, 0, 0, -1, 0, 90.5)" xlink:href="#linear-gradient"/><linearGradient id="linear-gradient-22" x1="174.21" y1="25.8" x2="165.39" y2="41.08" gradientTransform="matrix(1, 0, 0, -1, 0, 90.5)" xlink:href="#linear-gradient"/><linearGradient id="linear-gradient-23" x1="189.36" y1="28.75" x2="181.58" y2="42.22" gradientTransform="matrix(1, 0, 0, -1, 0, 90.5)" xlink:href="#linear-gradient"/></defs><path class="cls-1" d="M104.86,14.75c-1.9,4.83-3.3,9.4-4.82,13.59s-2.29,6.86-2.54,7.87H92.67c-.12-.51-.76-2.28-1.52-4.7-1-2.54-2.16-5.84-3.43-9.65h-.13c-1.26,3.43-2.28,6.48-3.3,9.27a44.49,44.49,0,0,1-1.9,4.95h-5c-.13-.5-1-2.66-2.29-6.85-1.27-3.81-3.05-8.76-5.08-14.73l5.59-1.65c.13.38.51,2.16,1.52,5s2,6.35,3.18,10.29h.12c1.27-3.43,2.29-6.48,3.18-9.4s1.52-4.45,1.52-4.83h4.57c.13.51.77,2.29,1.53,5s2,5.84,3,9.27h.13c1.27-3.81,2.29-7.24,3.3-10s1.4-4.57,1.53-5.07Z"/><path class="cls-2" d="M129.88,36.21h-5.59V26.94H113.88v9.27h-5.59V13.61h5.59v8.63h10.67V13.61h5.58V32C130.13,33.93,129.88,35.58,129.88,36.21Z"/><path class="cls-3" d="M141.56,36.21H136V13.86h5.59V36.21Z"/><path class="cls-4" d="M162.26,29.74a4.56,4.56,0,0,1-1,3.17,10.9,10.9,0,0,1-2.54,2.29,10.81,10.81,0,0,1-3.55,1.14,24.19,24.19,0,0,1-4.32.38H148c-.77,0-1.4-.13-1.65-.13L145.88,32a9.31,9.31,0,0,1,1.52.13c.89,0,1.65.13,2.29.13a12.1,12.1,0,0,0,2-.13c.89-.13,1.4-.26,2-.38a2.86,2.86,0,0,0,1.52-.89,1.87,1.87,0,0,0,.38-1.27,2.51,2.51,0,0,0-.38-1.4,4.57,4.57,0,0,0-1.65-1.14,18.53,18.53,0,0,0-2-.89A17,17,0,0,1,149.43,25c-1.14-.76-2-1.4-2.28-2.29a7.77,7.77,0,0,1-.76-2.66,4.38,4.38,0,0,1,.5-2.29,10.25,10.25,0,0,1,1.4-1.9,12,12,0,0,1,3.56-2,17.37,17.37,0,0,1,5.46-.76h2.41a4.18,4.18,0,0,1,1.39.13l.51,4.57a6.62,6.62,0,0,1-1.39-.13c-.51,0-1.4-.12-2.29-.12a9.44,9.44,0,0,0-1.9.12c-.51.13-1.15.26-1.66.38a1.91,1.91,0,0,0-1.14.77,1.9,1.9,0,0,0,0,2.28,4.66,4.66,0,0,0,1.65,1.14c.51.26,1.15.51,1.91.89A19.73,19.73,0,0,1,159,24.28c1.14.76,2,1.39,2.28,2.28A5,5,0,0,1,162.26,29.74Z"/><path class="cls-5" d="M184.35,21.74a6.85,6.85,0,0,1-1.4,4.44,7.23,7.23,0,0,1-3.8,2.67c-.89.38-2,.51-3.05.89a15.32,15.32,0,0,1-3.43.25v6.35h-5.59V13.74h3.81c2.41,0,4.32.12,5.84.25a11.46,11.46,0,0,1,3.69,1.14,9.54,9.54,0,0,1,3.17,2.54A10.5,10.5,0,0,1,184.35,21.74Zm-5.71.38a4.38,4.38,0,0,0-.51-2.29,3.34,3.34,0,0,0-1.91-1.52,7.84,7.84,0,0,0-1.65-.51c-.5,0-1.27-.13-1.9-.13h-.51v8.76h.51a11.52,11.52,0,0,0,1.9-.12,12,12,0,0,0,1.65-.38,4.61,4.61,0,0,0,1.91-1.53A4,4,0,0,0,178.64,22.12Z"/><path class="cls-6" d="M204.92,36.21H188.29V13.86h16.5v4.07H193.87v4.95h10.92v3.3H193.87v5.59h11.31C204.92,32,204.92,36.21,204.92,36.21Z"/><path class="cls-7" d="M230.57,34.82,225.49,37c-.38-.5-1.27-1.65-2.41-3.3s-3.05-3.93-5.59-7.24l.13-.25c.38-.13.89-.25,1.52-.51a3.63,3.63,0,0,0,1.53-1.14,5.51,5.51,0,0,0,1-1.4,4,4,0,0,0,.26-1.9,3.35,3.35,0,0,0-.51-1.91,3.86,3.86,0,0,0-1.52-1.27,7.13,7.13,0,0,0-1.53-.38c-.51,0-1.14-.12-1.52-.12h-1V36.08h-5.59V13.86h5c1.65,0,3.17,0,4.44.13a10.38,10.38,0,0,1,3.43.76A6.83,6.83,0,0,1,226.51,17a5.57,5.57,0,0,1,1.14,3.43,5.88,5.88,0,0,1-1.27,3.68A7.86,7.86,0,0,1,224,26.43h0A56.78,56.78,0,0,0,227.65,31,25.49,25.49,0,0,1,230.57,34.82Z"/><path class="cls-8" d="M66.46,12.05a.26.26,0,1,0-.26-.26C65.94,11.92,66.07,12.05,66.46,12.05Z"/><path class="cls-9" d="M18.1,19.7a.78.78,0,0,0,0-1.56.84.84,0,0,0-.78.78A1,1,0,0,0,18.1,19.7Z"/><path class="cls-10" d="M10.45,42.78a.78.78,0,0,0,0-1.56.84.84,0,0,0-.78.78C9.67,42.52,9.8,42.78,10.45,42.78Z"/><path class="cls-11" d="M55.18,49.13a.84.84,0,0,0,.78-.78.78.78,0,0,0-1.56,0C54.53,48.74,54.79,49.13,55.18,49.13Z"/><path class="cls-12" d="M19.78,35.78a.26.26,0,1,0-.26-.26C19.52,35.65,19.52,35.78,19.78,35.78Z"/><path class="cls-13" d="M30.8,11.27a.39.39,0,1,0,0-.78.59.59,0,0,0-.39.39C30.54,11,30.67,11.27,30.8,11.27Z"/><path class="cls-14" d="M13.56,32.53c-.13,0-.26-.13-.39-.25-.39-1.3-.52-1.56-2.07-1.43-.13,0-.26-.13-.39-.26s.13-.26.26-.39c1.29-.39,1.42-.52,1.42-2.07,0-.13.13-.26.26-.39s.26.13.39.26c.39,1.29.52,1.55,2.07,1.42.13,0,.26.13.39.26s-.13.26-.26.39c-1.29.39-1.42.52-1.42,2.08C13.82,32.53,13.69,32.53,13.56,32.53Z"/><path class="cls-15" d="M38.58,20c-.39.13-.51.39-.51,1a1.34,1.34,0,0,0,.51,1,12.42,12.42,0,0,1,6.88,7.13,1,1,0,0,0,1,.78c.52,0,.78-.26,1-.78A12.83,12.83,0,0,1,54.4,22c.39-.13.52-.39.52-1a1.35,1.35,0,0,0-.52-1,12.44,12.44,0,0,1-6.87-7.13,1,1,0,0,0-1-.78c-.52,0-.77.26-1,.78A12.42,12.42,0,0,1,38.58,20ZM28,19.05a1.88,1.88,0,0,0-1.3-.91,1.76,1.76,0,0,0-1.29.91,30.61,30.61,0,0,1-14.65,15.3,1.88,1.88,0,0,0-.91,1.3,1.4,1.4,0,0,0,.91,1.29,31.17,31.17,0,0,1,14.65,15.3,1.88,1.88,0,0,0,1.29.91,1.76,1.76,0,0,0,1.3-.91A30.61,30.61,0,0,1,42.6,36.94a1.86,1.86,0,0,0,.91-1.29,1.41,1.41,0,0,0-.91-1.3A31.64,31.64,0,0,1,28,19.05ZM45.33,42a12.81,12.81,0,0,1-6.88,7.13c-.38.13-.51.39-.51,1a1.34,1.34,0,0,0,.51,1,12.4,12.4,0,0,1,6.88,7.13,1,1,0,0,0,1,.78c.65,0,.78-.26,1-.78a12.8,12.8,0,0,1,6.87-7.13c.39-.13.52-.39.52-1a1.35,1.35,0,0,0-.52-1A12.44,12.44,0,0,1,47.4,42a1.08,1.08,0,0,0-2.07,0Z"/><path class="cls-16" d="M31.71,38.5C18.36,43.3,8.11,49.13,8.89,51.6s12.19.38,25.54-4.54S58.16,36.42,57.26,34C56.74,31.76,45.07,33.7,31.71,38.5Z"/><path class="cls-17" d="M31.71,38.5C18.36,43.3,8.11,49.13,8.89,51.6s12.19.38,25.54-4.54S58.16,36.42,57.26,34C56.74,31.76,45.07,33.7,31.71,38.5Z"/><path class="cls-18" d="M52.2,22.16a.42.42,0,0,1-.39-.39c0-2.07-.26-2.33-2.08-2.85a.39.39,0,0,1,0-.78c2,0,2.08-.26,2.73-2.07q.2-.39.39-.39a.42.42,0,0,1,.39.39c0,2.07.26,2.33,2.07,2.85q.39.2.39.39a.42.42,0,0,1-.39.39c-1.94,0-2.07.26-2.72,2.07A.42.42,0,0,1,52.2,22.16Z"/><path class="cls-19" d="M119.8,61.23h-4.29V43.56h4.29V61.23Z"/><path class="cls-20" d="M145.32,61.23H141.4v-8a3.86,3.86,0,0,0-.36-1.79,1.64,1.64,0,0,0-1.25-.53,3,3,0,0,0-1.25.18,6.29,6.29,0,0,0-1.61.71v9.28H133V52c0-.36-.18-.54-.18-.71l-.54-.54a1.32,1.32,0,0,0-.89-.18,5.51,5.51,0,0,0-1.43.36c-.53.18-1.07.53-1.61.71v9.46h-4.28V47.84H128v1.25h0A12.45,12.45,0,0,1,130.15,48a7.11,7.11,0,0,1,2.5-.53,4.3,4.3,0,0,1,2.14.53A2.84,2.84,0,0,1,136,49.27h0A9.54,9.54,0,0,1,138.72,48a8,8,0,0,1,2.68-.53,3.47,3.47,0,0,1,2.85,1.07,4,4,0,0,1,1.07,2.85v9.82Z"/><path class="cls-21" d="M160.14,54.27v7a10.23,10.23,0,0,0-1.78.18c-1.08,0-2,.18-3.22.18a12.61,12.61,0,0,1-2.5-.18c-.89-.18-1.78-.36-2.32-.53a8.1,8.1,0,0,1-2-1.43,2.68,2.68,0,0,1-.72-2,2.84,2.84,0,0,1,.72-2.14,5.81,5.81,0,0,1,2.32-1.43,10.71,10.71,0,0,1,2.5-.53,12.14,12.14,0,0,0,2.68-.36A1.51,1.51,0,0,0,155.5,52a1.61,1.61,0,0,0-1.07-.71,2.26,2.26,0,0,0-1.07-.18h-4.11l.36-2.86h2.5a22.19,22.19,0,0,1,3.75.36,6.62,6.62,0,0,1,2.5,1.25,7.81,7.81,0,0,1,1.42,2A6.59,6.59,0,0,1,160.14,54.27Zm-3.75,2.5V54.63a5.73,5.73,0,0,0-1.43.18,5,5,0,0,0-1.78.53,1.73,1.73,0,0,0-.89.72,1.29,1.29,0,0,0-.36,1.07,2.59,2.59,0,0,0,.36,1.25c.17.35.53.53,1.07.71a2.22,2.22,0,0,0,1.07.18h2.14v-.71A6.68,6.68,0,0,1,156.39,56.77Z"/><path class="cls-22" d="M175.67,47.84V60a7.07,7.07,0,0,1-.89,3.57,5.45,5.45,0,0,1-2.32,2.15,14.43,14.43,0,0,1-3.93,1.07,34.55,34.55,0,0,1-4.11.35l-.35-2.85a14.24,14.24,0,0,0,2.85-.18,8.89,8.89,0,0,0,2.32-.36A5.14,5.14,0,0,0,171,62.66a2.17,2.17,0,0,0,.54-1.61h-.36a19.71,19.71,0,0,1-3-.35,6.08,6.08,0,0,1-2.67-1.07,5.65,5.65,0,0,1-2.86-5.36,5,5,0,0,1,1.07-3.21,9.33,9.33,0,0,1,2.86-2.32,13.21,13.21,0,0,1,2.85-.9,26.46,26.46,0,0,1,3.93-.17h1.07A3.65,3.65,0,0,0,175.67,47.84Zm-3.75,6.79V50.7h-.35a3.44,3.44,0,0,0-1.43.18,2.88,2.88,0,0,0-1.43.53,3.35,3.35,0,0,0-1.43,1.25,3.59,3.59,0,0,0-.53,2,2.63,2.63,0,0,0,.53,1.78,4.91,4.91,0,0,0,1.43,1.25,12.18,12.18,0,0,0,1.43.54,4.86,4.86,0,0,0,1.6.18h.36V57A9.38,9.38,0,0,1,171.92,54.63Z"/><path class="cls-23" d="M191.38,54.63h-9.1a3,3,0,0,0,.53,1.78,4.2,4.2,0,0,0,1.61,1.43l1.6.54a6.68,6.68,0,0,0,2,.18h2.32L190,61.41h-2.32a15.45,15.45,0,0,1-4.1-.53,8.34,8.34,0,0,1-3-1.61,5,5,0,0,1-1.61-2.14,7.67,7.67,0,0,1-.71-2.86,6,6,0,0,1,.54-2.68,9.13,9.13,0,0,1,1.6-2.32,6.62,6.62,0,0,1,2.14-1.43,7.35,7.35,0,0,1,2.68-.53,10.38,10.38,0,0,1,2.5.36,4.51,4.51,0,0,1,2,1.25A6.15,6.15,0,0,1,191,51.24,10.34,10.34,0,0,1,191.38,54.63Zm-3.75-1.79a2.89,2.89,0,0,0-.71-2,2.29,2.29,0,0,0-1.79-.72,2.66,2.66,0,0,0-2,.72,2.83,2.83,0,0,0-.89,2Z"/></svg>